:FULLY-SPECIFIED
:FORCE-ALL-JOINTS-BE-3DOF
:DEGREES
2039
root -3.26039 15.1793 22.2945 178.534 -9.01216 173.186
lfemur -17.777 10.1786 -23.1216
ltibia 56.0621 -0 0
lfoot -24.7928 17.3723 -0.0149102
ltoes -42.3203 0 0
rfemur -58.2207 -15.1986 18.8095
rtibia 65.2583 -0 0
rfoot -1.46342 4.0789 -0.0176396
rtoes -10.7454 0 0
lowerback 15.4605 -0.718673 -8.55788
upperback -0.49474 -2.43129 1.89335
thorax -8.82203 -0.761633 7.49923
lowerneck -2.92401 -3.44221 -5.96003
upperneck 6.91057 -4.50283 1.10147
head 2.91155 -2.41163 1.21373
lclavicle 2.8128e-14 4.77083e-15 0
lhumerus -2.68939 -35.3469 85.5793
lradius 65.7411 -0 0
lwrist -5.01246 0 0
lhand -26.1578 37.1574 -0.220191
lfingers 7.12502 -0 0
lthumb 0.394287 67.0513 -0.18643
rclavicle 2.8128e-14 4.77083e-15 0
rhumerus 0.0200321 16.8062 -68.9628
rradius 119.654 -0 0
rwrist -48.9387 0 0
rhand 40.832 -27.3415 0.188662
rfingers 7.12502 -0 0
rthumb 62.9214 -35.9782 0.466152
2040
root -3.26172 15.1528 22.129 178.554 -9.64726 173.165
lfemur -17.3325 9.64584 -22.9485
ltibia 56.1039 -0 0
lfoot -24.983 17.8027 -0.0328363
ltoes -42.5034 0 0
rfemur -58.0291 -15.3092 18.4001
rtibia 64.8692 -0 0
rfoot -1.12194 3.79523 -0.0388466
rtoes -9.88248 0 0
lowerback 15.3871 -0.585243 -8.66036
upperback -0.460972 -2.27357 1.81031
thorax -8.7743 -0.688205 7.43294
lowerneck -2.87029 -3.76924 -6.21224
upperneck 6.92597 -4.9549 1.3922
head 2.95411 -2.6314 1.31543
lclavicle 2.8128e-14 4.77083e-15 0
lhumerus -5.6168 -34.8635 86.8894
lradius 67.3278 -0 0
lwrist -2.57008 0 0
lhand -27.45 38.0601 -0.485647
lfingers 7.12502 -0 0
lthumb -0.851675 67.8479 -0.4111
rclavicle 2.8128e-14 4.77083e-15 0
rhumerus 1.73007 16.4551 -68.0404
rradius 116.008 -0 0
rwrist -46.578 0 0
rhand 38.6536 -27.7826 0.41677
rfingers 7.12502 -0 0
rthumb 60.9418 -37.1641 1.03021
2041
root -3.26102 15.1208 21.9637 178.579 -10.4071 173.139
lfemur -16.8038 9.00673 -22.7473
ltibia 56.1538 -0 0
lfoot -25.2108 18.3176 -0.0524057
ltoes -42.7224 0 0
rfemur -57.7988 -15.4397 17.9094
rtibia 64.4037 -0 0
rfoot -0.713256 3.45569 -0.061997
rtoes -8.85007 0 0
lowerback 15.299 -0.425776 -8.7832
upperback -0.420875 -2.08481 1.71109
thorax -8.71731 -0.60028 7.35372
lowerneck -2.8041 -4.16019 -6.51452
upperneck 6.94139 -5.49586 1.74015
head 3.00453 -2.89444 1.43691
lclavicle 2.8128e-14 4.77083e-15 0
lhumerus -9.07691 -34.2147 88.4046
lradius 69.2261 -0 0
lwrist 0.352055 0 0
lhand -29.0014 39.1476 -0.776351
lfingers 7.12502 -0 0
lthumb -2.34636 68.8072 -0.657033
rclavicle 2.8128e-14 4.77083e-15 0
rhumerus 3.76379 16.0007 -66.9541
rradius 111.645 -0 0
rwrist -43.7535 0 0
rhand 36.0448 -28.3212 0.6674
rfingers 7.12502 -0 0
rthumb 58.5582 -38.6077 1.65058
2042
root -3.25852 15.0839 21.7996 178.607 -11.2747 173.109
lfemur -16.2039 8.27481 -22.5253
ltibia 56.2109 -0 0
lfoot -25.471 18.9057 -0.0722462
ltoes -42.9725 0 0
rfemur -57.5342 -15.5865 17.348
rtibia 63.8721 -0 0
rfoot -0.246464 3.06781 -0.0854672
rtoes -7.67126 0 0
lowerback 15.1979 -0.24393 -8.92375
upperback -0.375499 -1.8692 1.59798
thorax -8.65239 -0.499793 7.26337
lowerneck -2.72595 -4.60614 -6.86041
upperneck 6.95498 -6.11362 2.13767
head 3.06144 -3.19491 1.57538
lclavicle 2.8128e-14 4.77083e-15 0
lhumerus -12.967 -33.3841 90.0588
lradius 71.3936 -0 0
lwrist 3.68852 0 0
lhand -30.7793 40.3986 -1.07206
lfingers 7.12502 -0 0
lthumb -4.05784 69.9099 -0.907086
rclavicle 2.8128e-14 4.77083e-15 0
rhumerus 6.06867 15.4372 -65.7381
rradius 106.664 -0 0
rwrist -40.5286 0 0
rhand 33.0633 -28.9495 0.923229
rfingers 7.12502 -0 0
rthumb 55.8174 -40.2866 2.28452
2043
root -3.25441 15.043 21.6376 178.639 -12.233 173.075
lfemur -15.5459 7.46373 -22.2895
ltibia 56.2739 -0 0
lfoot -25.7586 19.5554 -0.0910558
ltoes -43.2488 0 0
rfemur -57.24 -15.7456 16.7268
rtibia 63.285 -0 0
rfoot 0.269315 2.63915 -0.107717
rtoes -6.36919 0 0
lowerback 15.0858 -0.0433573 -9.07937
upperback -0.325879 -1.63094 1.47325
thorax -8.58086 -0.388678 7.1637
lowerneck -2.63643 -5.09817 -7.24345
upperneck 6.96498 -6.79608 2.57715
head 3.12346 -3.52696 1.72802
lclavicle 2.8128e-14 4.77083e-15 0
lhumerus -17.1845 -32.3616 91.7848
lradius 73.7877 -0 0
lwrist 7.37389 0 0
lhand -32.7503 41.7904 -1.35333
lfingers 7.12502 -0 0
lthumb -5.95364 71.1361 -1.14482
rclavicle 2.8128e-14 4.77083e-15 0
rhumerus 8.59218 14.7609 -64.4274
rradius 101.162 -0 0
rwrist -36.9664 0 0
rhand 29.7667 -29.658 1.16738
rfingers 7.12502 -0 0
rthumb 52.7683 -42.1748 2.89025
2044
root -3.24891 14.9987 21.4784 178.674 -13.265 173.037
lfemur -14.8423 6.58733 -22.0465
ltibia 56.3417 -0 0
lfoot -26.0686 20.2551 -0.107663
ltoes -43.5463 0 0
rfemur -56.9209 -15.9136 16.0562
rtibia 62.6527 -0 0
rfoot 0.824939 2.17733 -0.127362
rtoes -4.96695 0 0
lowerback 14.9644 0.172303 -9.2474
upperback -0.273028 -1.37423 1.33917
thorax -8.50405 -0.268877 7.05653
lowerneck -2.53625 -5.62736 -7.65716
upperneck 6.96987 -7.53109 3.05104
head 3.1893 -3.88473 1.89207
lclavicle 2.8128e-14 4.77083e-15 0
lhumerus -21.6294 -31.1456 93.5178
lradius 76.3661 -0 0
lwrist 11.3428 0 0
lhand -34.8801 43.2994 -1.60242
lfingers 7.12502 -0 0
lthumb -8.00062 72.4648 -1.35526
rclavicle 2.8128e-14 4.77083e-15 0
rhumerus 11.2823 13.9712 -63.0562
rradius 95.236 -0 0
rwrist -33.1303 0 0
rhand 26.2131 -30.4354 1.38427
rfingers 7.12502 -0 0
rthumb 49.4625 -44.2424 3.42897
2045
root -3.24224 14.9519 21.3232 178.713 -14.3536 172.997
lfemur -14.1054 5.65966 -21.8024
ltibia 56.4133 -0 0
lfoot -26.3958 20.9933 -0.121078
ltoes -43.8601 0 0
rfemur -56.5818 -16.0869 15.3471
rtibia 61.9856 -0 0
rfoot 1.41124 1.68994 -0.143229
rtoes -3.48767 0 0
lowerback 14.8356 0.399424 -9.42516
upperback -0.21793 -1.10329 1.19799
thorax -8.42327 -0.142339 6.94364
lowerneck -2.42629 -6.18483 -8.09504
upperneck 6.96837 -8.30651 3.55182
head 3.25767 -4.26236 2.06476
lclavicle 2.8128e-14 4.77083e-15 0
lhumerus -26.2081 -29.7446 95.1982
lradius 79.0861 -0 0
lwrist 15.5297 0 0
lhand -37.1335 44.9003 -1.80415
lfingers 7.12502 -0 0
lthumb -10.1649 73.8738 -1.52563
rclavicle 2.8128e-14 4.77083e-15 0
rhumerus 14.0884 13.072 -61.6578
rradius 88.9849 -0 0
rwrist -29.0833 0 0
rhand 22.4611 -31.2684 1.56036
rfingers 7.12502 -0 0
rthumb 45.9545 -46.4546 3.86684
2046
root -3.2346 14.9032 21.1726 178.753 -15.4819 172.954
lfemur -13.347 4.69496 -21.5623
ltibia 56.4875 -0 0
lfoot -26.7351 21.7586 -0.130531
ltoes -44.1854 0 0
rfemur -56.2277 -16.2622 14.6105
rtibia 61.2942 -0 0
rfoot 2.01904 1.18464 -0.154411
rtoes -1.95445 0 0
lowerback 14.7015 0.634403 -9.60994
upperback -0.161533 -0.822319 1.05196
thorax -8.3398 -0.0110194 6.82683
lowerneck -2.30768 -6.76173 -8.55053
upperneck 6.95958 -9.11015 4.07197
head 3.32736 -4.65397 2.24337
lclavicle 2.8128e-14 4.77083e-15 0
lhumerus -30.8349 -28.1767 96.7756
lradius 81.9052 -0 0
lwrist 19.8693 0 0
lhand -39.4743 46.5668 -1.94658
lfingers 7.12502 -0 0
lthumb -12.412 75.3399 -1.64588
rclavicle 2.8128e-14 4.77083e-15 0
rhumerus 16.9615 12.0714 -60.263
rradius 82.5058 -0 0
rwrist -24.8888 0 0
rhand 18.5698 -32.1421 1.68495
rfingers 7.12502 -0 0
rthumb 42.3018 -48.7724 4.17688
2047
root -3.2262 14.8534 21.0276 178.796 -16.6329 172.909
lfemur -12.5784 3.70772 -21.331
ltibia 56.5632 -0 0
lfoot -27.0813 22.5393 -0.135505
ltoes -44.5172 0 0
rfemur -55.8637 -16.4365 13.8572
rtibia 60.589 -0 0
rfoot 2.63914 0.669094 -0.160293
rtoes -0.390417 0 0
lowerback 14.5638 0.873658 -9.79902
upperback -0.104743 -0.535557 0.903285
thorax -8.25493 0.123115 6.70787
lowerneck -2.18176 -7.34924 -9.01701
upperneck 6.94295 -9.92982 4.60398
head 3.39723 -5.05367 2.42518
lclavicle 2.8128e-14 4.77083e-15 0
lhumerus -35.4342 -26.4693 98.2104
lradius 84.7811 -0 0
lwrist 24.2961 0 0
lhand -41.8655 48.2714 -2.02161
lfingers 7.12502 -0 0
lthumb -14.7068 76.8393 -1.70922
rclavicle 2.8128e-14 4.77083e-15 0
rhumerus 19.855 10.982 -58.8999
rradius 75.8966 -0 0
rwrist -20.61 0 0
rhand 14.5985 -33.0401 1.75065
rfingers 7.12502 -0 0
rthumb 38.5648 -51.153 4.34048
2048
root -3.21726 14.8034 20.8891 178.839 -17.7895 172.863
lfemur -11.8108 2.71259 -21.1122
ltibia 56.6392 -0 0
lfoot -27.4293 23.3238 -0.13575
ltoes -44.8507 0 0
rfemur -55.4953 -16.607 13.0983
rtibia 59.8802 -0 0
rfoot 3.26231 0.150972 -0.160583
rtoes 1.18132 -0 0
lowerback 14.4246 1.11363 -9.98962
upperback -0.0484258 -0.247235 0.754169
thorax -8.16992 0.258086 6.58851
lowerneck -2.0502 -7.93859 -9.48773
upperneck 6.9184 -10.7533 5.14024
head 3.46621 -5.45557 2.60751
lclavicle 2.8128e-14 4.77083e-15 0
lhumerus -39.94 -24.6572 99.475
lradius 87.671 -0 0
lwrist 28.7447 0 0
lhand -44.2697 49.9861 -2.02531
lfingers 7.12502 -0 0
lthumb -17.0138 78.3475 -1.71234
rclavicle 2.8128e-14 4.77083e-15 0
rhumerus 22.725 9.82122 -57.593
rradius 69.2547 -0 0
rwrist -16.3101 0 0
rhand 10.6071 -33.9448 1.75389
rfingers 7.12502 -0 0
rthumb 34.8053 -53.5512 4.34856
2049
root -3.20798 14.7537 20.758 178.884 -18.9347 172.816
lfemur -11.055 1.72442 -20.9088
ltibia 56.7145 -0 0
lfoot -27.7738 24.1006 -0.131298
ltoes -45.1809 0 0
rfemur -55.1279 -16.7712 12.3452
rtibia 59.1784 -0 0
rfoot 3.87936 -0.362043 -0.155318
rtoes 2.73765 -0 0
lowerback 14.2861 1.35079 -10.1789
upperback 0.00659935 0.038403 0.606795
thorax -8.08602 0.391909 6.47053
lowerneck -1.9149 -8.52109 -9.95588
upperneck 6.88627 -11.5685 5.67311
head 3.53329 -5.85374 2.7877
lclavicle 2.8128e-14 4.77083e-15 0
lhumerus -44.2952 -22.781 100.554
lradius 90.5327 -0 0
lwrist 33.1497 0 0
lhand -46.6494 51.6827 -1.95815
lfingers 7.12502 -0 0
lthumb -19.2974 79.8397 -1.65565
rclavicle 2.8128e-14 4.77083e-15 0
rhumerus 25.5302 8.6102 -56.3627
rradius 62.678 -0 0
rwrist -12.0523 0 0
rhand 6.65526 -34.8388 1.69507
rfingers 7.12502 -0 0
rthumb 31.086 -55.9212 4.20209
2050
root -3.19859 14.7052 20.6352 178.929 -20.0516 172.769
lfemur -10.3216 0.758225 -20.723
ltibia 56.788 -0 0
lfoot -28.1097 24.8582 -0.122459
ltoes -45.5029 0 0
rfemur -54.7671 -16.9269 11.609
rtibia 58.494 -0 0
rfoot 4.48106 -0.862277 -0.144862
rtoes 4.25546 -0 0
lowerback 14.1501 1.58164 -10.3641
upperback 0.0595555 0.317107 0.463331
thorax -8.00447 0.522585 6.35565
lowerneck -1.77812 -9.0881 -10.4145
upperneck 6.84736 -12.3632 6.19478
head 3.59755 -6.24225 2.9631
lclavicle 2.8128e-14 4.77083e-15 0
lhumerus -48.4498 -20.8848 101.442
lradius 93.3235 -0 0
lwrist 37.4457 0 0
lhand -48.9671 53.3331 -1.82493
lfingers 7.12502 -0 0
lthumb -21.5222 81.2917 -1.54318
rclavicle 2.8128e-14 4.77083e-15 0
rhumerus 28.232 7.37361 -55.2254
rradius 56.2641 -0 0
rwrist -7.89997 0 0
rhand 2.80278 -35.7047 1.57853
rfingers 7.12502 -0 0
rthumb 27.4685 -58.218 3.91204
2051
root -3.18929 14.6587 20.5215 178.973 -21.1231 172.723
lfemur -9.62096 -0.170893 -20.5565
ltibia 56.8584 -0 0
lfoot -28.4318 25.5849 -0.109804
ltoes -45.8118 0 0
rfemur -54.4187 -17.0721 10.9012
rtibia 57.8373 -0 0
rfoot 5.05822 -1.34207 -0.129894
rtoes 5.71163 -0 0
lowerback 14.019 1.8027 -10.5424
upperback 0.109707 0.584616 0.32593
thorax -7.92647 0.648108 6.24561
lowerneck -1.64236 -9.63104 -10.8565
upperneck 6.80294 -13.1253 6.69733
head 3.65812 -6.61516 3.1311
lclavicle 2.8128e-14 4.77083e-15 0
lhumerus -52.3586 -19.0145 102.146
lradius 96.001 -0 0
lwrist 41.5672 0 0
lhand -51.1861 54.91 -1.63459
lfingers 7.12502 -0 0
lthumb -23.6533 82.6795 -1.38243
rclavicle 2.8128e-14 4.77083e-15 0
rhumerus 30.7937 6.13888 -54.1933
rradius 50.1107 -0 0
rwrist -3.91624 0 0
rhand -0.890966 -36.5262 1.41232
rfingers 7.12502 -0 0
rthumb 24.0129 -60.3992 3.49869
